<svg xmlns="http://www.w3.org/2000/svg" xmlns:xlink="http://www.w3.org/1999/xlink" width="500" zoomAndPan="magnify" viewBox="0 0 375 374.999991" height="500" preserveAspectRatio="xMidYMid meet" version="1.0"><defs><clipPath id="b729c13d72"><path d="M 42.75 39 L 332.25 39 L 332.25 337.5 L 42.75 337.5 Z M 42.75 39 " clip-rule="nonzero"/></clipPath></defs><g clip-path="url(#b729c13d72)"><path fill="#e1f340" d="M 219.539062 317.378906 C 179.71875 334.757812 132.039062 316.503906 115.472656 273.753906 C 105.542969 248.167969 107.675781 214.648438 127.285156 189.511719 L 247.664062 189.511719 C 279.457031 228.65625 269.0625 295.789062 219.539062 317.378906 Z M 297.109375 59.683594 L 242.71875 59.683594 L 242.71875 96.558594 C 231.664062 85.113281 201.925781 54.351562 187.746094 39.707031 C 185.011719 42.539062 75.882812 155.429688 42.925781 189.511719 L 60.96875 189.511719 C 46.378906 223.03125 46.960938 263.085938 60.386719 295.011719 C 105.484375 402.453125 267.683594 404.761719 314.914062 294.277344 C 329.054688 261.222656 328.417969 221.265625 315.050781 189.511719 L 332.566406 189.511719 L 297.109375 152.832031 L 297.109375 59.683594 " fill-opacity="1" fill-rule="nonzero"/></g></svg>