<svg xmlns="http://www.w3.org/2000/svg" xmlns:xlink="http://www.w3.org/1999/xlink" width="500" zoomAndPan="magnify" viewBox="0 0 375 149.999998" height="200" preserveAspectRatio="xMidYMid meet" version="1.0"><defs><g/><clipPath id="0ba733c5dc"><path d="M 2.285156 0.558594 L 123.289062 0.558594 L 123.289062 125.695312 L 2.285156 125.695312 Z M 2.285156 0.558594 " clip-rule="nonzero"/></clipPath><clipPath id="e618bd8d92"><path d="M 102.117188 103.378906 L 270.757812 103.378906 L 270.757812 129.964844 L 102.117188 129.964844 Z M 102.117188 103.378906 " clip-rule="nonzero"/></clipPath><clipPath id="f4170b057a"><path d="M 187.054688 108.53125 C 215.367188 104.210938 243.042969 99.890625 270.71875 108.199219 L 270.71875 123.980469 C 242.089844 116.007812 213.460938 120.492188 185.78125 124.8125 C 157.46875 129.132812 129.792969 133.453125 102.117188 125.144531 L 102.117188 109.359375 C 130.75 117.335938 159.378906 112.851562 187.054688 108.53125 Z M 187.054688 108.53125 " clip-rule="nonzero"/></clipPath><clipPath id="afd1b24e7f"><path d="M 0.117188 0.378906 L 168.757812 0.378906 L 168.757812 26.964844 L 0.117188 26.964844 Z M 0.117188 0.378906 " clip-rule="nonzero"/></clipPath><clipPath id="4371a1b10f"><path d="M 85.054688 5.53125 C 113.367188 1.210938 141.042969 -3.109375 168.71875 5.199219 L 168.71875 20.980469 C 140.089844 13.007812 111.460938 17.492188 83.78125 21.8125 C 55.46875 26.132812 27.792969 30.453125 0.117188 22.144531 L 0.117188 6.359375 C 28.75 14.335938 57.378906 9.851562 85.054688 5.53125 Z M 85.054688 5.53125 " clip-rule="nonzero"/></clipPath><clipPath id="442af30d93"><rect x="0" width="169" y="0" height="27"/></clipPath><clipPath id="7029f2b76d"><path d="M 125 63 L 270.921875 63 L 270.921875 103 L 125 103 Z M 125 63 " clip-rule="nonzero"/></clipPath><clipPath id="d44dac282c"><rect x="0" width="146" y="0" height="40"/></clipPath><clipPath id="889e077c64"><rect x="0" width="271" y="0" height="140"/></clipPath></defs><g transform="matrix(1, 0, 0, 1, 55, 10)"><g clip-path="url(#889e077c64)"><g clip-path="url(#0ba733c5dc)"><path fill="#e1f340" d="M 76.039062 116.800781 C 59.425781 124.050781 39.535156 116.4375 32.621094 98.601562 C 28.480469 87.929688 29.371094 73.945312 37.550781 63.457031 L 87.769531 63.457031 C 101.035156 79.789062 96.695312 107.796875 76.039062 116.800781 Z M 108.398438 9.296875 L 85.707031 9.296875 L 85.707031 24.679688 C 81.09375 19.90625 68.691406 7.074219 62.773438 0.964844 C 61.632812 2.144531 16.105469 49.242188 2.359375 63.457031 L 9.882812 63.457031 C 3.800781 77.441406 4.042969 94.152344 9.640625 107.472656 C 28.457031 152.292969 96.121094 153.257812 115.828125 107.164062 C 121.726562 93.375 121.457031 76.707031 115.882812 63.457031 L 123.191406 63.457031 L 108.398438 48.15625 L 108.398438 9.296875 " fill-opacity="1" fill-rule="nonzero"/></g><g clip-path="url(#e618bd8d92)"><g clip-path="url(#f4170b057a)"><g transform="matrix(1, 0, 0, 1, 102, 103)"><g clip-path="url(#442af30d93)"><g clip-path="url(#afd1b24e7f)"><g clip-path="url(#4371a1b10f)"><path fill="#e1f340" d="M 0.117188 0.378906 L 168.757812 0.378906 L 168.757812 26.964844 L 0.117188 26.964844 Z M 0.117188 0.378906 " fill-opacity="1" fill-rule="nonzero"/></g></g></g></g></g></g><g clip-path="url(#7029f2b76d)"><g transform="matrix(1, 0, 0, 1, 125, 63)"><g clip-path="url(#d44dac282c)"><g fill="#e1f340" fill-opacity="1"><g transform="translate(0.207546, 32.711446)"><g><path d="M 1.921875 0 L 1.921875 -23.265625 L 10.546875 -23.265625 C 14.453125 -23.265625 17.375 -22.296875 19.3125 -20.359375 C 21.25 -18.429688 22.21875 -15.566406 22.21875 -11.765625 C 22.21875 -7.867188 21.222656 -4.929688 19.234375 -2.953125 C 17.253906 -0.984375 14.257812 0 10.25 0 Z M 10.78125 -3.8125 C 13.539062 -3.8125 15.566406 -4.476562 16.859375 -5.8125 C 18.160156 -7.15625 18.8125 -9.132812 18.8125 -11.75 C 18.8125 -14.269531 18.175781 -16.179688 16.90625 -17.484375 C 15.644531 -18.785156 13.660156 -19.4375 10.953125 -19.4375 L 5.625 -19.4375 L 5.625 -3.8125 Z M 10.78125 -3.8125 "/></g></g></g><g fill="#e1f340" fill-opacity="1"><g transform="translate(23.3338, 32.711446)"><g><path d="M 1.921875 0 L 1.921875 -23.265625 L 18.265625 -23.265625 L 18.265625 -19.53125 L 5.625 -19.53125 L 5.625 -12.890625 L 15.875 -12.890625 L 15.875 -11.25 L 5.625 -11.265625 L 5.625 -3.703125 L 18.359375 -3.703125 L 18.359375 0 Z M 1.921875 0 "/></g></g></g><g fill="#e1f340" fill-opacity="1"><g transform="translate(41.896471, 32.711446)"><g><path d="M 17.8125 -12.6875 C 18.070312 -13.820312 18.097656 -14.84375 17.890625 -15.75 C 17.679688 -16.664062 17.285156 -17.441406 16.703125 -18.078125 C 16.117188 -18.710938 15.394531 -19.203125 14.53125 -19.546875 C 13.664062 -19.890625 12.710938 -20.0625 11.671875 -20.0625 C 10.128906 -20.0625 8.804688 -19.726562 7.703125 -19.0625 C 6.597656 -18.394531 5.753906 -17.4375 5.171875 -16.1875 C 4.585938 -14.9375 4.296875 -13.421875 4.296875 -11.640625 C 4.296875 -9.859375 4.597656 -8.335938 5.203125 -7.078125 C 5.804688 -5.828125 6.671875 -4.867188 7.796875 -4.203125 C 8.929688 -3.535156 10.300781 -3.203125 11.90625 -3.203125 C 13.113281 -3.203125 14.191406 -3.414062 15.140625 -3.84375 C 16.097656 -4.269531 16.867188 -4.898438 17.453125 -5.734375 C 18.046875 -6.578125 18.394531 -7.617188 18.5 -8.859375 L 21.640625 -8.03125 C 21.484375 -6.257812 20.988281 -4.726562 20.15625 -3.4375 C 19.320312 -2.144531 18.191406 -1.148438 16.765625 -0.453125 C 15.335938 0.242188 13.644531 0.59375 11.6875 0.59375 C 9.445312 0.59375 7.523438 0.113281 5.921875 -0.84375 C 4.316406 -1.800781 3.078125 -3.191406 2.203125 -5.015625 C 1.335938 -6.835938 0.90625 -9.035156 0.90625 -11.609375 C 0.90625 -14.179688 1.328125 -16.378906 2.171875 -18.203125 C 3.015625 -20.035156 4.242188 -21.4375 5.859375 -22.40625 C 7.472656 -23.382812 9.4375 -23.875 11.75 -23.875 C 13.269531 -23.875 14.65625 -23.628906 15.90625 -23.140625 C 17.15625 -22.648438 18.210938 -21.941406 19.078125 -21.015625 C 19.941406 -20.097656 20.550781 -18.988281 20.90625 -17.6875 C 21.257812 -16.394531 21.3125 -14.941406 21.0625 -13.328125 Z M 17.8125 -12.6875 "/></g></g></g><g fill="#e1f340" fill-opacity="1"><g transform="translate(64.275668, 32.711446)"><g><path d="M 12.09375 0.59375 C 9.675781 0.59375 7.628906 0.113281 5.953125 -0.84375 C 4.285156 -1.800781 3.023438 -3.191406 2.171875 -5.015625 C 1.328125 -6.835938 0.90625 -9.039062 0.90625 -11.625 C 0.90625 -14.226562 1.328125 -16.441406 2.171875 -18.265625 C 3.023438 -20.085938 4.285156 -21.476562 5.953125 -22.4375 C 7.617188 -23.394531 9.660156 -23.875 12.078125 -23.875 C 14.515625 -23.875 16.5625 -23.394531 18.21875 -22.4375 C 19.882812 -21.476562 21.144531 -20.085938 22 -18.265625 C 22.851562 -16.441406 23.28125 -14.226562 23.28125 -11.625 C 23.28125 -9.039062 22.851562 -6.835938 22 -5.015625 C 21.144531 -3.191406 19.882812 -1.800781 18.21875 -0.84375 C 16.5625 0.113281 14.519531 0.59375 12.09375 0.59375 Z M 12.078125 -3.203125 C 13.710938 -3.203125 15.113281 -3.507812 16.28125 -4.125 C 17.445312 -4.75 18.335938 -5.6875 18.953125 -6.9375 C 19.566406 -8.1875 19.875 -9.75 19.875 -11.625 C 19.875 -13.507812 19.566406 -15.070312 18.953125 -16.3125 C 18.335938 -17.5625 17.445312 -18.5 16.28125 -19.125 C 15.113281 -19.75 13.710938 -20.0625 12.078125 -20.0625 C 9.628906 -20.0625 7.71875 -19.359375 6.34375 -17.953125 C 4.976562 -16.554688 4.296875 -14.445312 4.296875 -11.625 C 4.296875 -8.8125 4.976562 -6.703125 6.34375 -5.296875 C 7.71875 -3.898438 9.628906 -3.203125 12.078125 -3.203125 Z M 12.078125 -3.203125 "/></g></g></g><g fill="#e1f340" fill-opacity="1"><g transform="translate(88.457544, 32.711446)"><g><path d="M 20.703125 0 L 17.125 0 C 17.019531 -0.21875 16.921875 -0.46875 16.828125 -0.75 C 16.734375 -1.03125 16.628906 -1.398438 16.515625 -1.859375 C 16.410156 -2.328125 16.285156 -2.945312 16.140625 -3.71875 L 15.859375 -5.421875 C 15.679688 -6.390625 15.394531 -7.210938 15 -7.890625 C 14.613281 -8.566406 14.09375 -9.078125 13.4375 -9.421875 C 12.78125 -9.773438 11.957031 -9.953125 10.96875 -9.953125 L 5.625 -9.953125 L 5.625 0 L 1.921875 0 L 1.921875 -23.265625 L 12.328125 -23.265625 C 13.898438 -23.265625 15.269531 -23.046875 16.4375 -22.609375 C 17.613281 -22.171875 18.53125 -21.484375 19.1875 -20.546875 C 19.84375 -19.609375 20.171875 -18.367188 20.171875 -16.828125 C 20.171875 -15.035156 19.648438 -13.628906 18.609375 -12.609375 C 17.578125 -11.585938 16.003906 -10.992188 13.890625 -10.828125 L 13.90625 -10.78125 C 15.4375 -10.632812 16.640625 -10.148438 17.515625 -9.328125 C 18.390625 -8.503906 18.957031 -7.394531 19.21875 -6 L 19.546875 -4.125 C 19.671875 -3.363281 19.828125 -2.648438 20.015625 -1.984375 C 20.203125 -1.316406 20.429688 -0.65625 20.703125 0 Z M 5.625 -11.71875 L 12.0625 -11.71875 C 13.0625 -11.71875 13.914062 -11.847656 14.625 -12.109375 C 15.332031 -12.378906 15.875 -12.816406 16.25 -13.421875 C 16.632812 -14.035156 16.828125 -14.84375 16.828125 -15.84375 C 16.828125 -16.789062 16.617188 -17.523438 16.203125 -18.046875 C 15.796875 -18.566406 15.234375 -18.925781 14.515625 -19.125 C 13.796875 -19.332031 12.96875 -19.4375 12.03125 -19.4375 L 5.625 -19.4375 Z M 5.625 -11.71875 "/></g></g></g><g fill="#e1f340" fill-opacity="1"><g transform="translate(109.748639, 32.711446)"><g><path d="M 5.625 0 L 1.921875 0 L 1.921875 -23.265625 L 5.625 -23.265625 Z M 5.625 0 "/></g></g></g><g fill="#e1f340" fill-opacity="1"><g transform="translate(117.284159, 32.711446)"><g><path d="M 1.921875 0 L 1.921875 -23.265625 L 6.109375 -23.265625 C 7.046875 -20.992188 7.984375 -18.617188 8.921875 -16.140625 C 9.867188 -13.671875 10.785156 -11.175781 11.671875 -8.65625 C 12.554688 -6.132812 13.375 -3.664062 14.125 -1.25 L 14.28125 -1.25 C 14.851562 -3.0625 15.460938 -4.90625 16.109375 -6.78125 C 16.765625 -8.65625 17.4375 -10.53125 18.125 -12.40625 C 18.820312 -14.289062 19.519531 -16.144531 20.21875 -17.96875 C 20.925781 -19.789062 21.617188 -21.554688 22.296875 -23.265625 L 26.515625 -23.265625 L 26.515625 0 L 22.953125 0 L 22.953125 -15.140625 C 22.953125 -15.835938 22.960938 -16.414062 22.984375 -16.875 C 23.003906 -17.332031 23.023438 -17.710938 23.046875 -18.015625 C 23.078125 -18.316406 23.101562 -18.578125 23.125 -18.796875 L 23 -18.796875 L 15.921875 0 L 12.5 0 L 5.390625 -18.8125 L 5.296875 -18.8125 C 5.328125 -18.476562 5.359375 -18.039062 5.390625 -17.5 C 5.429688 -16.957031 5.453125 -16.171875 5.453125 -15.140625 L 5.453125 0 Z M 1.921875 0 "/></g></g></g></g></g></g></g></g></svg>