<svg xmlns="http://www.w3.org/2000/svg" xmlns:xlink="http://www.w3.org/1999/xlink" width="500" zoomAndPan="magnify" viewBox="0 0 375 374.999991" height="500" preserveAspectRatio="xMidYMid meet" version="1.0"><defs><g/><clipPath id="2b34cb132a"><path d="M 86.1875 153 L 139.4375 153 L 139.4375 208.347656 L 86.1875 208.347656 Z M 86.1875 153 " clip-rule="nonzero"/></clipPath></defs><g clip-path="url(#2b34cb132a)"><path fill="#e1f340" d="M 118.804688 204.488281 C 111.457031 207.695312 102.660156 204.328125 99.605469 196.4375 C 97.773438 191.71875 98.167969 185.535156 101.785156 180.894531 L 123.996094 180.894531 C 129.863281 188.117188 127.941406 200.503906 118.804688 204.488281 Z M 133.117188 156.941406 L 123.082031 156.941406 L 123.082031 163.746094 C 121.042969 161.632812 115.558594 155.957031 112.941406 153.257812 C 112.4375 153.777344 92.300781 174.609375 86.222656 180.894531 L 89.550781 180.894531 C 86.859375 187.082031 86.964844 194.472656 89.441406 200.363281 C 97.761719 220.183594 127.6875 220.609375 136.402344 200.226562 C 139.011719 194.128906 138.894531 186.753906 136.429688 180.894531 L 139.660156 180.894531 L 133.117188 174.128906 L 133.117188 156.941406 " fill-opacity="1" fill-rule="nonzero"/></g><g fill="#ffffff" fill-opacity="1"><g transform="translate(33.55093, 208.404435)"><g><path d="M 31.015625 -39.703125 C 36.035156 -39.703125 39.703125 -38.238281 42.015625 -35.3125 C 44.328125 -32.394531 45.484375 -28.421875 45.484375 -23.390625 L 45.484375 0 L 32.25 0 L 32.25 -21.15625 C 32.25 -23.726562 31.707031 -25.679688 30.625 -27.015625 C 29.550781 -28.347656 27.859375 -29.015625 25.546875 -29.015625 C 22.878906 -29.015625 20.8125 -28.140625 19.34375 -26.390625 C 17.882812 -24.648438 17.15625 -21.878906 17.15625 -18.078125 L 17.15625 0 L 3.921875 0 L 3.921875 -53.875 L 17.15625 -53.875 L 17.15625 -31.3125 C 18.4375 -33.882812 20.207031 -35.925781 22.46875 -37.4375 C 24.726562 -38.945312 27.578125 -39.703125 31.015625 -39.703125 Z M 31.015625 -39.703125 "/></g></g></g><g fill="#ffffff" fill-opacity="1"><g transform="translate(143.24664, 208.595538)"><g><path d="M 56.5625 -39.703125 C 61.59375 -39.703125 65.300781 -38.238281 67.6875 -35.3125 C 70.070312 -32.394531 71.265625 -28.421875 71.265625 -23.390625 L 71.265625 0 L 58.015625 0 L 58.015625 -21.390625 C 58.015625 -23.859375 57.515625 -25.742188 56.515625 -27.046875 C 55.515625 -28.359375 53.914062 -29.015625 51.71875 -29.015625 C 49.09375 -29.015625 47.164062 -28.140625 45.9375 -26.390625 C 44.707031 -24.648438 44.09375 -21.878906 44.09375 -18.078125 L 44.09375 0 L 31.09375 0 L 31.09375 -21.390625 C 31.09375 -23.859375 30.59375 -25.742188 29.59375 -27.046875 C 28.59375 -28.359375 26.988281 -29.015625 24.78125 -29.015625 C 22.21875 -29.015625 20.304688 -28.140625 19.046875 -26.390625 C 17.785156 -24.648438 17.15625 -21.878906 17.15625 -18.078125 L 17.15625 0 L 3.921875 0 L 3.921875 -38.484375 L 17.15625 -38.484375 L 17.15625 -31.9375 C 18.34375 -34.34375 20 -36.238281 22.125 -37.625 C 24.25 -39.007812 26.957031 -39.703125 30.25 -39.703125 C 33.582031 -39.703125 36.285156 -38.957031 38.359375 -37.46875 C 40.441406 -35.988281 41.96875 -33.890625 42.9375 -31.171875 C 44.113281 -33.734375 45.804688 -35.796875 48.015625 -37.359375 C 50.222656 -38.921875 53.070312 -39.703125 56.5625 -39.703125 Z M 56.5625 -39.703125 "/></g></g></g><g fill="#ffffff" fill-opacity="1"><g transform="translate(214.574673, 208.595538)"><g><path d="M 24.09375 -7.625 C 26.039062 -7.625 27.628906 -8.003906 28.859375 -8.765625 C 30.085938 -9.535156 30.957031 -10.488281 31.46875 -11.625 L 44.328125 -11.625 C 43.910156 -9.414062 42.972656 -7.335938 41.515625 -5.390625 C 40.054688 -3.441406 37.898438 -1.847656 35.046875 -0.609375 C 32.203125 0.617188 28.445312 1.234375 23.78125 1.234375 C 19.882812 1.234375 16.570312 0.671875 13.84375 -0.453125 C 11.125 -1.585938 8.929688 -3.128906 7.265625 -5.078125 C 5.597656 -7.023438 4.394531 -9.226562 3.65625 -11.6875 C 2.914062 -14.15625 2.546875 -16.695312 2.546875 -19.3125 C 2.546875 -23.0625 3.285156 -26.472656 4.765625 -29.546875 C 6.253906 -32.628906 8.5625 -35.09375 11.6875 -36.9375 C 14.820312 -38.78125 18.851562 -39.703125 23.78125 -39.703125 C 27.726562 -39.703125 31.019531 -39.140625 33.65625 -38.015625 C 36.300781 -36.890625 38.421875 -35.347656 40.015625 -33.390625 C 41.609375 -31.441406 42.75 -29.238281 43.4375 -26.78125 C 44.132812 -24.320312 44.484375 -21.753906 44.484375 -19.078125 C 44.484375 -17.796875 44.40625 -16.722656 44.25 -15.859375 L 15.390625 -15.859375 C 15.796875 -12.773438 16.726562 -10.628906 18.1875 -9.421875 C 19.65625 -8.222656 21.625 -7.625 24.09375 -7.625 Z M 23.9375 -31.015625 C 21.570312 -31.015625 19.679688 -30.460938 18.265625 -29.359375 C 16.859375 -28.253906 15.953125 -26.316406 15.546875 -23.546875 L 31.9375 -23.546875 C 31.726562 -25.960938 30.984375 -27.8125 29.703125 -29.09375 C 28.421875 -30.375 26.5 -31.015625 23.9375 -31.015625 Z M 23.9375 -31.015625 "/></g></g></g><g fill="#e1f340" fill-opacity="1"><g transform="translate(267.23691, 199.681643)"><g><path d="M 5.734375 -10.09375 C 6.554688 -10.09375 7.265625 -9.957031 7.859375 -9.6875 C 8.460938 -9.414062 8.960938 -9.046875 9.359375 -8.578125 C 9.753906 -8.109375 10.046875 -7.570312 10.234375 -6.96875 C 10.421875 -6.375 10.515625 -5.742188 10.515625 -5.078125 C 10.515625 -4.398438 10.421875 -3.757812 10.234375 -3.15625 C 10.046875 -2.550781 9.753906 -2.007812 9.359375 -1.53125 C 8.960938 -1.050781 8.460938 -0.675781 7.859375 -0.40625 C 7.265625 -0.132812 6.554688 0 5.734375 0 L 0.875 0 L 0.875 -10.09375 Z M 5.21875 -1.84375 C 6.257812 -1.84375 7 -2.113281 7.4375 -2.65625 C 7.882812 -3.195312 8.109375 -4.003906 8.109375 -5.078125 C 8.109375 -6.160156 7.882812 -6.960938 7.4375 -7.484375 C 6.988281 -8.015625 6.25 -8.28125 5.21875 -8.28125 L 3.1875 -8.28125 L 3.1875 -1.84375 Z M 5.21875 -1.84375 "/></g></g></g><g fill="#e1f340" fill-opacity="1"><g transform="translate(278.323831, 199.681643)"><g><path d="M 3.1875 -1.84375 L 8.859375 -1.84375 L 8.859375 0 L 0.875 0 L 0.875 -10.09375 L 8.8125 -10.09375 L 8.8125 -8.28125 L 3.1875 -8.28125 L 3.1875 -6.015625 L 8.359375 -6.015625 L 8.359375 -4.296875 L 3.1875 -4.296875 Z M 3.1875 -1.84375 "/></g></g></g><g fill="#e1f340" fill-opacity="1"><g transform="translate(287.937554, 199.681643)"><g><path d="M 5.96875 0.265625 C 5.019531 0.265625 4.207031 0.125 3.53125 -0.15625 C 2.863281 -0.445312 2.320312 -0.835938 1.90625 -1.328125 C 1.488281 -1.816406 1.179688 -2.378906 0.984375 -3.015625 C 0.785156 -3.660156 0.6875 -4.335938 0.6875 -5.046875 C 0.6875 -5.742188 0.785156 -6.410156 0.984375 -7.046875 C 1.179688 -7.679688 1.488281 -8.25 1.90625 -8.75 C 2.320312 -9.25 2.867188 -9.640625 3.546875 -9.921875 C 4.222656 -10.210938 5.035156 -10.359375 5.984375 -10.359375 C 7.148438 -10.359375 8.09375 -10.195312 8.8125 -9.875 C 9.539062 -9.5625 10.085938 -9.085938 10.453125 -8.453125 C 10.816406 -7.828125 11.035156 -7.054688 11.109375 -6.140625 L 8.734375 -6.140625 C 8.660156 -6.890625 8.421875 -7.460938 8.015625 -7.859375 C 7.609375 -8.265625 6.941406 -8.46875 6.015625 -8.46875 C 5.003906 -8.46875 4.265625 -8.179688 3.796875 -7.609375 C 3.328125 -7.035156 3.09375 -6.179688 3.09375 -5.046875 C 3.09375 -3.929688 3.3125 -3.082031 3.75 -2.5 C 4.195312 -1.925781 4.925781 -1.640625 5.9375 -1.640625 C 6.90625 -1.640625 7.601562 -1.847656 8.03125 -2.265625 C 8.457031 -2.691406 8.703125 -3.296875 8.765625 -4.078125 L 11.140625 -4.078125 C 11.078125 -3.109375 10.863281 -2.300781 10.5 -1.65625 C 10.144531 -1.019531 9.597656 -0.539062 8.859375 -0.21875 C 8.128906 0.101562 7.164062 0.265625 5.96875 0.265625 Z M 5.96875 0.265625 "/></g></g></g><g fill="#e1f340" fill-opacity="1"><g transform="translate(299.69273, 199.681643)"><g><path d="M 6.015625 0.265625 C 5.046875 0.265625 4.21875 0.117188 3.53125 -0.171875 C 2.851562 -0.460938 2.304688 -0.851562 1.890625 -1.34375 C 1.472656 -1.832031 1.164062 -2.394531 0.96875 -3.03125 C 0.78125 -3.675781 0.6875 -4.347656 0.6875 -5.046875 C 0.6875 -5.734375 0.78125 -6.390625 0.96875 -7.015625 C 1.164062 -7.648438 1.472656 -8.21875 1.890625 -8.71875 C 2.304688 -9.226562 2.851562 -9.628906 3.53125 -9.921875 C 4.21875 -10.210938 5.046875 -10.359375 6.015625 -10.359375 C 6.984375 -10.359375 7.804688 -10.210938 8.484375 -9.921875 C 9.160156 -9.628906 9.707031 -9.226562 10.125 -8.71875 C 10.539062 -8.21875 10.84375 -7.648438 11.03125 -7.015625 C 11.226562 -6.390625 11.328125 -5.734375 11.328125 -5.046875 C 11.328125 -4.347656 11.226562 -3.679688 11.03125 -3.046875 C 10.84375 -2.410156 10.539062 -1.84375 10.125 -1.34375 C 9.707031 -0.851562 9.160156 -0.460938 8.484375 -0.171875 C 7.804688 0.117188 6.984375 0.265625 6.015625 0.265625 Z M 3.09375 -5.046875 C 3.09375 -4.316406 3.179688 -3.695312 3.359375 -3.1875 C 3.535156 -2.6875 3.835938 -2.300781 4.265625 -2.03125 C 4.691406 -1.769531 5.273438 -1.640625 6.015625 -1.640625 C 6.753906 -1.640625 7.335938 -1.769531 7.765625 -2.03125 C 8.191406 -2.300781 8.492188 -2.6875 8.671875 -3.1875 C 8.847656 -3.695312 8.9375 -4.316406 8.9375 -5.046875 C 8.9375 -5.796875 8.847656 -6.421875 8.671875 -6.921875 C 8.492188 -7.429688 8.191406 -7.816406 7.765625 -8.078125 C 7.335938 -8.335938 6.753906 -8.46875 6.015625 -8.46875 C 5.273438 -8.46875 4.691406 -8.335938 4.265625 -8.078125 C 3.835938 -7.816406 3.535156 -7.429688 3.359375 -6.921875 C 3.179688 -6.421875 3.09375 -5.796875 3.09375 -5.046875 Z M 3.09375 -5.046875 "/></g></g></g><g fill="#e1f340" fill-opacity="1"><g transform="translate(311.706096, 199.681643)"><g><path d="M 9.28125 -2.453125 L 9.28125 -1.78125 C 9.28125 -1.363281 9.300781 -1.019531 9.34375 -0.75 C 9.382812 -0.488281 9.429688 -0.238281 9.484375 0 L 7.171875 0 C 7.109375 -0.175781 7.054688 -0.40625 7.015625 -0.6875 C 6.984375 -0.976562 6.96875 -1.332031 6.96875 -1.75 L 6.96875 -2.28125 C 6.96875 -2.84375 6.8125 -3.253906 6.5 -3.515625 C 6.195312 -3.773438 5.789062 -3.90625 5.28125 -3.90625 L 3.203125 -3.90625 L 3.203125 0 L 0.875 0 L 0.875 -10.09375 L 6.21875 -10.09375 C 7.320312 -10.09375 8.148438 -9.835938 8.703125 -9.328125 C 9.265625 -8.816406 9.546875 -8.148438 9.546875 -7.328125 C 9.546875 -6.617188 9.34375 -6.035156 8.9375 -5.578125 C 8.539062 -5.117188 8.039062 -4.820312 7.4375 -4.6875 C 7.78125 -4.613281 8.09375 -4.488281 8.375 -4.3125 C 8.65625 -4.144531 8.875 -3.914062 9.03125 -3.625 C 9.195312 -3.332031 9.28125 -2.941406 9.28125 -2.453125 Z M 5.703125 -5.5625 C 6.222656 -5.5625 6.59375 -5.679688 6.8125 -5.921875 C 7.03125 -6.171875 7.140625 -6.53125 7.140625 -7 C 7.140625 -7.425781 7.023438 -7.75 6.796875 -7.96875 C 6.566406 -8.195312 6.203125 -8.3125 5.703125 -8.3125 L 3.203125 -8.3125 L 3.203125 -5.5625 Z M 5.703125 -5.5625 "/></g></g></g><g fill="#e1f340" fill-opacity="1"><g transform="translate(321.957701, 199.681643)"><g><path d="M 6.921875 -8.28125 L 5.0625 -8.28125 L 5.0625 -1.84375 L 6.921875 -1.84375 L 6.921875 0 L 0.875 0 L 0.875 -1.84375 L 2.75 -1.84375 L 2.75 -8.28125 L 0.875 -8.28125 L 0.875 -10.09375 L 6.921875 -10.09375 Z M 6.921875 -8.28125 "/></g></g></g><g fill="#e1f340" fill-opacity="1"><g transform="translate(329.764105, 199.681643)"><g><path d="M 13.484375 -10.09375 L 13.484375 0 L 11.171875 0 L 11.171875 -8.578125 L 8.515625 0 L 5.84375 0 L 3.171875 -8.625 L 3.171875 0 L 0.875 0 L 0.875 -10.09375 L 4.84375 -10.09375 L 7.21875 -2.28125 L 9.578125 -10.09375 Z M 13.484375 -10.09375 "/></g></g></g></svg>