<svg xmlns="http://www.w3.org/2000/svg" xmlns:xlink="http://www.w3.org/1999/xlink" width="500" zoomAndPan="magnify" viewBox="0 0 375 374.999991" height="500" preserveAspectRatio="xMidYMid meet" version="1.0"><defs><g/><clipPath id="f3b747d9d6"><path d="M 42.75 39 L 332.25 39 L 332.25 337.5 L 42.75 337.5 Z M 42.75 39 " clip-rule="nonzero"/></clipPath></defs><g clip-path="url(#f3b747d9d6)"><path fill="#e1f340" d="M 219.539062 317.378906 C 179.71875 334.757812 132.039062 316.503906 115.472656 273.753906 C 105.542969 248.167969 107.675781 214.648438 127.285156 189.511719 L 247.664062 189.511719 C 279.457031 228.65625 269.0625 295.789062 219.539062 317.378906 Z M 297.109375 59.683594 L 242.71875 59.683594 L 242.71875 96.558594 C 231.664062 85.113281 201.925781 54.351562 187.746094 39.707031 C 185.011719 42.539062 75.882812 155.429688 42.925781 189.511719 L 60.96875 189.511719 C 46.378906 223.03125 46.960938 263.085938 60.386719 295.011719 C 105.484375 402.453125 267.683594 404.761719 314.914062 294.277344 C 329.054688 261.222656 328.417969 221.265625 315.050781 189.511719 L 332.566406 189.511719 L 297.109375 152.832031 L 297.109375 59.683594 " fill-opacity="1" fill-rule="nonzero"/></g><g fill="#e1f340" fill-opacity="1"><g transform="translate(127.499732, 207.076218)"><g><path d="M 8.890625 -15.625 C 10.148438 -15.625 11.242188 -15.410156 12.171875 -14.984375 C 13.097656 -14.566406 13.863281 -14 14.46875 -13.28125 C 15.082031 -12.5625 15.535156 -11.734375 15.828125 -10.796875 C 16.117188 -9.867188 16.265625 -8.882812 16.265625 -7.84375 C 16.265625 -6.8125 16.117188 -5.828125 15.828125 -4.890625 C 15.535156 -3.953125 15.082031 -3.113281 14.46875 -2.375 C 13.863281 -1.632812 13.097656 -1.050781 12.171875 -0.625 C 11.242188 -0.207031 10.148438 0 8.890625 0 L 1.359375 0 L 1.359375 -15.625 Z M 8.078125 -2.84375 C 9.679688 -2.84375 10.828125 -3.257812 11.515625 -4.09375 C 12.203125 -4.9375 12.546875 -6.1875 12.546875 -7.84375 C 12.546875 -9.519531 12.195312 -10.765625 11.5 -11.578125 C 10.800781 -12.398438 9.660156 -12.8125 8.078125 -12.8125 L 4.9375 -12.8125 L 4.9375 -2.84375 Z M 8.078125 -2.84375 "/></g></g></g><g fill="#e1f340" fill-opacity="1"><g transform="translate(144.651918, 207.076218)"><g><path d="M 4.9375 -2.84375 L 13.703125 -2.84375 L 13.703125 0 L 1.359375 0 L 1.359375 -15.625 L 13.625 -15.625 L 13.625 -12.8125 L 4.9375 -12.8125 L 4.9375 -9.3125 L 12.921875 -9.3125 L 12.921875 -6.65625 L 4.9375 -6.65625 Z M 4.9375 -2.84375 "/></g></g></g><g fill="#e1f340" fill-opacity="1"><g transform="translate(159.52498, 207.076218)"><g><path d="M 9.234375 0.40625 C 7.765625 0.40625 6.507812 0.1875 5.46875 -0.25 C 4.4375 -0.695312 3.59375 -1.300781 2.9375 -2.0625 C 2.289062 -2.820312 1.816406 -3.691406 1.515625 -4.671875 C 1.210938 -5.660156 1.0625 -6.703125 1.0625 -7.796875 C 1.0625 -8.878906 1.210938 -9.914062 1.515625 -10.90625 C 1.816406 -11.894531 2.289062 -12.769531 2.9375 -13.53125 C 3.59375 -14.300781 4.441406 -14.910156 5.484375 -15.359375 C 6.523438 -15.804688 7.785156 -16.03125 9.265625 -16.03125 C 11.066406 -16.03125 12.523438 -15.78125 13.640625 -15.28125 C 14.765625 -14.789062 15.609375 -14.054688 16.171875 -13.078125 C 16.734375 -12.109375 17.066406 -10.914062 17.171875 -9.5 L 13.515625 -9.5 C 13.398438 -10.65625 13.03125 -11.546875 12.40625 -12.171875 C 11.78125 -12.796875 10.75 -13.109375 9.3125 -13.109375 C 7.738281 -13.109375 6.59375 -12.660156 5.875 -11.765625 C 5.15625 -10.878906 4.796875 -9.554688 4.796875 -7.796875 C 4.796875 -6.078125 5.132812 -4.769531 5.8125 -3.875 C 6.5 -2.976562 7.625 -2.53125 9.1875 -2.53125 C 10.6875 -2.53125 11.765625 -2.851562 12.421875 -3.5 C 13.085938 -4.15625 13.46875 -5.097656 13.5625 -6.328125 L 17.25 -6.328125 C 17.132812 -4.816406 16.800781 -3.5625 16.25 -2.5625 C 15.695312 -1.570312 14.851562 -0.828125 13.71875 -0.328125 C 12.582031 0.160156 11.085938 0.40625 9.234375 0.40625 Z M 9.234375 0.40625 "/></g></g></g><g fill="#e1f340" fill-opacity="1"><g transform="translate(177.711003, 207.076218)"><g><path d="M 9.3125 0.40625 C 7.800781 0.40625 6.519531 0.179688 5.46875 -0.265625 C 4.425781 -0.710938 3.578125 -1.316406 2.921875 -2.078125 C 2.273438 -2.835938 1.800781 -3.710938 1.5 -4.703125 C 1.207031 -5.691406 1.0625 -6.722656 1.0625 -7.796875 C 1.0625 -8.867188 1.207031 -9.894531 1.5 -10.875 C 1.800781 -11.851562 2.273438 -12.726562 2.921875 -13.5 C 3.578125 -14.269531 4.425781 -14.882812 5.46875 -15.34375 C 6.519531 -15.800781 7.800781 -16.03125 9.3125 -16.03125 C 10.8125 -16.03125 12.082031 -15.800781 13.125 -15.34375 C 14.164062 -14.882812 15.007812 -14.269531 15.65625 -13.5 C 16.3125 -12.726562 16.785156 -11.851562 17.078125 -10.875 C 17.378906 -9.894531 17.53125 -8.867188 17.53125 -7.796875 C 17.53125 -6.722656 17.378906 -5.695312 17.078125 -4.71875 C 16.785156 -3.738281 16.3125 -2.863281 15.65625 -2.09375 C 15.007812 -1.320312 14.164062 -0.710938 13.125 -0.265625 C 12.082031 0.179688 10.8125 0.40625 9.3125 0.40625 Z M 4.796875 -7.796875 C 4.796875 -6.671875 4.929688 -5.71875 5.203125 -4.9375 C 5.472656 -4.15625 5.9375 -3.554688 6.59375 -3.140625 C 7.257812 -2.734375 8.164062 -2.53125 9.3125 -2.53125 C 10.445312 -2.53125 11.34375 -2.734375 12 -3.140625 C 12.664062 -3.554688 13.132812 -4.15625 13.40625 -4.9375 C 13.675781 -5.71875 13.8125 -6.671875 13.8125 -7.796875 C 13.8125 -8.960938 13.675781 -9.9375 13.40625 -10.71875 C 13.132812 -11.5 12.664062 -12.09375 12 -12.5 C 11.34375 -12.90625 10.445312 -13.109375 9.3125 -13.109375 C 8.164062 -13.109375 7.257812 -12.90625 6.59375 -12.5 C 5.9375 -12.09375 5.472656 -11.5 5.203125 -10.71875 C 4.929688 -9.9375 4.796875 -8.960938 4.796875 -7.796875 Z M 4.796875 -7.796875 "/></g></g></g><g fill="#e1f340" fill-opacity="1"><g transform="translate(196.296458, 207.076218)"><g><path d="M 14.359375 -3.8125 L 14.359375 -2.75 C 14.359375 -2.101562 14.390625 -1.578125 14.453125 -1.171875 C 14.515625 -0.765625 14.582031 -0.375 14.65625 0 L 11.09375 0 C 11 -0.28125 10.921875 -0.640625 10.859375 -1.078125 C 10.804688 -1.515625 10.78125 -2.054688 10.78125 -2.703125 L 10.78125 -3.53125 C 10.78125 -4.40625 10.539062 -5.039062 10.0625 -5.4375 C 9.59375 -5.84375 8.960938 -6.046875 8.171875 -6.046875 L 4.953125 -6.046875 L 4.953125 0 L 1.359375 0 L 1.359375 -15.625 L 9.609375 -15.625 C 11.335938 -15.625 12.628906 -15.226562 13.484375 -14.4375 C 14.347656 -13.644531 14.78125 -12.613281 14.78125 -11.34375 C 14.78125 -10.25 14.46875 -9.34375 13.84375 -8.625 C 13.21875 -7.914062 12.441406 -7.460938 11.515625 -7.265625 C 12.046875 -7.140625 12.523438 -6.945312 12.953125 -6.6875 C 13.390625 -6.425781 13.734375 -6.066406 13.984375 -5.609375 C 14.234375 -5.160156 14.359375 -4.5625 14.359375 -3.8125 Z M 8.8125 -8.59375 C 9.625 -8.59375 10.195312 -8.785156 10.53125 -9.171875 C 10.875 -9.554688 11.046875 -10.109375 11.046875 -10.828125 C 11.046875 -11.492188 10.867188 -12 10.515625 -12.34375 C 10.160156 -12.6875 9.59375 -12.859375 8.8125 -12.859375 L 4.953125 -12.859375 L 4.953125 -8.59375 Z M 8.8125 -8.59375 "/></g></g></g><g fill="#e1f340" fill-opacity="1"><g transform="translate(212.156355, 207.076218)"><g><path d="M 10.71875 -12.8125 L 7.828125 -12.8125 L 7.828125 -2.84375 L 10.71875 -2.84375 L 10.71875 0 L 1.359375 0 L 1.359375 -2.84375 L 4.25 -2.84375 L 4.25 -12.8125 L 1.359375 -12.8125 L 1.359375 -15.625 L 10.71875 -15.625 Z M 10.71875 -12.8125 "/></g></g></g><g fill="#e1f340" fill-opacity="1"><g transform="translate(224.233373, 207.076218)"><g><path d="M 20.875 -15.625 L 20.875 0 L 17.296875 0 L 17.296875 -13.28125 L 13.1875 0 L 9.046875 0 L 4.90625 -13.34375 L 4.90625 0 L 1.359375 0 L 1.359375 -15.625 L 7.5 -15.625 L 11.15625 -3.53125 L 14.828125 -15.625 Z M 20.875 -15.625 "/></g></g></g></svg>