<svg xmlns="http://www.w3.org/2000/svg" xmlns:xlink="http://www.w3.org/1999/xlink" width="500" zoomAndPan="magnify" viewBox="0 0 375 374.999991" height="500" preserveAspectRatio="xMidYMid meet" version="1.0"><defs><g/><clipPath id="16efa4874f"><path d="M 16.421875 94 L 170.921875 94 L 170.921875 253.554688 L 16.421875 253.554688 Z M 16.421875 94 " clip-rule="nonzero"/></clipPath><clipPath id="22f572629b"><path d="M 141.78125 225.179688 L 357.230469 225.179688 L 357.230469 259.140625 L 141.78125 259.140625 Z M 141.78125 225.179688 " clip-rule="nonzero"/></clipPath><clipPath id="e1cb7eeca3"><path d="M 250.292969 231.761719 C 286.464844 226.242188 321.824219 220.722656 357.179688 231.335938 L 357.179688 251.5 C 320.601562 241.3125 284.027344 247.042969 248.667969 252.5625 C 212.496094 258.082031 177.140625 263.601562 141.78125 252.988281 L 141.78125 232.820312 C 178.359375 243.011719 214.933594 237.277344 250.292969 231.761719 Z M 250.292969 231.761719 " clip-rule="nonzero"/></clipPath><clipPath id="7ba0f31058"><path d="M 0.78125 0.179688 L 216.230469 0.179688 L 216.230469 34.140625 L 0.78125 34.140625 Z M 0.78125 0.179688 " clip-rule="nonzero"/></clipPath><clipPath id="76f8225fd9"><path d="M 109.292969 6.761719 C 145.464844 1.242188 180.824219 -4.277344 216.179688 6.335938 L 216.179688 26.5 C 179.601562 16.3125 143.027344 22.042969 107.667969 27.5625 C 71.496094 33.082031 36.140625 38.601562 0.78125 27.988281 L 0.78125 7.820312 C 37.359375 18.011719 73.933594 12.277344 109.292969 6.761719 Z M 109.292969 6.761719 " clip-rule="nonzero"/></clipPath><clipPath id="b8b2e83d0f"><rect x="0" width="217" y="0" height="35"/></clipPath></defs><g clip-path="url(#16efa4874f)"><path fill="#e1f340" d="M 110.648438 242.984375 C 89.425781 252.246094 64.011719 242.519531 55.183594 219.734375 C 49.890625 206.097656 51.027344 188.230469 61.480469 174.832031 L 125.640625 174.832031 C 142.585938 195.695312 137.042969 231.476562 110.648438 242.984375 Z M 151.992188 105.636719 L 123.003906 105.636719 L 123.003906 125.289062 C 117.109375 119.191406 101.261719 102.792969 93.703125 94.988281 C 92.246094 96.496094 34.082031 156.667969 16.515625 174.832031 L 26.132812 174.832031 C 18.355469 192.699219 18.667969 214.046875 25.820312 231.0625 C 49.859375 288.328125 136.308594 289.558594 161.484375 230.671875 C 169.019531 213.054688 168.679688 191.757812 161.554688 174.832031 L 170.890625 174.832031 L 151.992188 155.28125 L 151.992188 105.636719 " fill-opacity="1" fill-rule="nonzero"/></g><g clip-path="url(#22f572629b)"><g clip-path="url(#e1cb7eeca3)"><g transform="matrix(1, 0, 0, 1, 141, 225)"><g clip-path="url(#b8b2e83d0f)"><g clip-path="url(#7ba0f31058)"><g clip-path="url(#76f8225fd9)"><path fill="#e1f340" d="M 0.78125 0.179688 L 216.230469 0.179688 L 216.230469 34.140625 L 0.78125 34.140625 Z M 0.78125 0.179688 " fill-opacity="1" fill-rule="nonzero"/></g></g></g></g></g></g><g fill="#e1f340" fill-opacity="1"><g transform="translate(171.278885, 218.269176)"><g><path d="M 2.453125 0 L 2.453125 -29.71875 L 13.46875 -29.71875 C 18.457031 -29.71875 22.191406 -28.484375 24.671875 -26.015625 C 27.148438 -23.546875 28.390625 -19.882812 28.390625 -15.03125 C 28.390625 -10.0625 27.117188 -6.3125 24.578125 -3.78125 C 22.035156 -1.257812 18.207031 0 13.09375 0 Z M 13.78125 -4.875 C 17.3125 -4.875 19.898438 -5.726562 21.546875 -7.4375 C 23.203125 -9.144531 24.03125 -11.664062 24.03125 -15 C 24.03125 -18.226562 23.21875 -20.675781 21.59375 -22.34375 C 19.976562 -24.007812 17.441406 -24.84375 13.984375 -24.84375 L 7.1875 -24.84375 L 7.1875 -4.875 Z M 13.78125 -4.875 "/></g></g></g><g fill="#e1f340" fill-opacity="1"><g transform="translate(200.824233, 218.269176)"><g><path d="M 2.453125 0 L 2.453125 -29.71875 L 23.34375 -29.71875 L 23.34375 -24.9375 L 7.1875 -24.9375 L 7.1875 -16.484375 L 20.28125 -16.484375 L 20.28125 -14.375 L 7.1875 -14.40625 L 7.1875 -4.734375 L 23.453125 -4.734375 L 23.453125 0 Z M 2.453125 0 "/></g></g></g><g fill="#e1f340" fill-opacity="1"><g transform="translate(224.539296, 218.269176)"><g><path d="M 22.765625 -16.203125 C 23.097656 -17.660156 23.128906 -18.96875 22.859375 -20.125 C 22.585938 -21.289062 22.078125 -22.28125 21.328125 -23.09375 C 20.585938 -23.914062 19.664062 -24.539062 18.5625 -24.96875 C 17.457031 -25.40625 16.242188 -25.625 14.921875 -25.625 C 12.941406 -25.625 11.242188 -25.195312 9.828125 -24.34375 C 8.421875 -23.5 7.347656 -22.273438 6.609375 -20.671875 C 5.867188 -19.078125 5.5 -17.144531 5.5 -14.875 C 5.5 -12.59375 5.878906 -10.648438 6.640625 -9.046875 C 7.410156 -7.441406 8.519531 -6.210938 9.96875 -5.359375 C 11.414062 -4.515625 13.164062 -4.09375 15.21875 -4.09375 C 16.757812 -4.09375 18.140625 -4.363281 19.359375 -4.90625 C 20.578125 -5.457031 21.554688 -6.265625 22.296875 -7.328125 C 23.046875 -8.398438 23.492188 -9.726562 23.640625 -11.3125 L 27.640625 -10.25 C 27.441406 -8 26.8125 -6.046875 25.75 -4.390625 C 24.6875 -2.734375 23.238281 -1.457031 21.40625 -0.5625 C 19.582031 0.320312 17.425781 0.765625 14.9375 0.765625 C 12.070312 0.765625 9.613281 0.15625 7.5625 -1.0625 C 5.507812 -2.289062 3.925781 -4.070312 2.8125 -6.40625 C 1.707031 -8.738281 1.15625 -11.550781 1.15625 -14.84375 C 1.15625 -18.113281 1.695312 -20.914062 2.78125 -23.25 C 3.863281 -25.59375 5.429688 -27.382812 7.484375 -28.625 C 9.546875 -29.875 12.050781 -30.5 15 -30.5 C 16.957031 -30.5 18.734375 -30.179688 20.328125 -29.546875 C 21.921875 -28.921875 23.265625 -28.019531 24.359375 -26.84375 C 25.460938 -25.675781 26.242188 -24.265625 26.703125 -22.609375 C 27.160156 -20.953125 27.234375 -19.09375 26.921875 -17.03125 Z M 22.765625 -16.203125 "/></g></g></g><g fill="#e1f340" fill-opacity="1"><g transform="translate(253.130229, 218.269176)"><g><path d="M 15.453125 0.765625 C 12.359375 0.765625 9.742188 0.15625 7.609375 -1.0625 C 5.484375 -2.289062 3.875 -4.070312 2.78125 -6.40625 C 1.695312 -8.738281 1.15625 -11.554688 1.15625 -14.859375 C 1.15625 -18.179688 1.695312 -21.003906 2.78125 -23.328125 C 3.875 -25.660156 5.484375 -27.4375 7.609375 -28.65625 C 9.734375 -29.882812 12.34375 -30.5 15.4375 -30.5 C 18.550781 -30.5 21.171875 -29.882812 23.296875 -28.65625 C 25.421875 -27.4375 27.023438 -25.660156 28.109375 -23.328125 C 29.191406 -21.003906 29.734375 -18.179688 29.734375 -14.859375 C 29.734375 -11.554688 29.191406 -8.738281 28.109375 -6.40625 C 27.023438 -4.070312 25.421875 -2.289062 23.296875 -1.0625 C 21.171875 0.15625 18.554688 0.765625 15.453125 0.765625 Z M 15.4375 -4.09375 C 17.53125 -4.09375 19.316406 -4.488281 20.796875 -5.28125 C 22.285156 -6.070312 23.425781 -7.265625 24.21875 -8.859375 C 25.007812 -10.460938 25.40625 -12.460938 25.40625 -14.859375 C 25.40625 -17.265625 25.007812 -19.265625 24.21875 -20.859375 C 23.425781 -22.453125 22.285156 -23.644531 20.796875 -24.4375 C 19.316406 -25.226562 17.53125 -25.625 15.4375 -25.625 C 12.3125 -25.625 9.875 -24.726562 8.125 -22.9375 C 6.375 -21.144531 5.5 -18.453125 5.5 -14.859375 C 5.5 -11.265625 6.375 -8.570312 8.125 -6.78125 C 9.875 -4.988281 12.3125 -4.09375 15.4375 -4.09375 Z M 15.4375 -4.09375 "/></g></g></g><g fill="#e1f340" fill-opacity="1"><g transform="translate(284.024205, 218.269176)"><g><path d="M 26.453125 0 L 21.875 0 C 21.75 -0.28125 21.625 -0.597656 21.5 -0.953125 C 21.375 -1.316406 21.238281 -1.796875 21.09375 -2.390625 C 20.957031 -2.984375 20.800781 -3.769531 20.625 -4.75 L 20.25 -6.9375 C 20.03125 -8.164062 19.671875 -9.210938 19.171875 -10.078125 C 18.671875 -10.941406 18.003906 -11.597656 17.171875 -12.046875 C 16.335938 -12.492188 15.28125 -12.71875 14 -12.71875 L 7.1875 -12.71875 L 7.1875 0 L 2.453125 0 L 2.453125 -29.71875 L 15.75 -29.71875 C 17.757812 -29.71875 19.515625 -29.441406 21.015625 -28.890625 C 22.515625 -28.335938 23.679688 -27.457031 24.515625 -26.25 C 25.359375 -25.050781 25.78125 -23.46875 25.78125 -21.5 C 25.78125 -19.21875 25.113281 -17.421875 23.78125 -16.109375 C 22.457031 -14.804688 20.445312 -14.050781 17.75 -13.84375 L 17.765625 -13.78125 C 19.722656 -13.582031 21.257812 -12.957031 22.375 -11.90625 C 23.488281 -10.851562 24.210938 -9.4375 24.546875 -7.65625 L 24.96875 -5.265625 C 25.132812 -4.296875 25.335938 -3.382812 25.578125 -2.53125 C 25.816406 -1.6875 26.109375 -0.84375 26.453125 0 Z M 7.1875 -14.96875 L 15.421875 -14.96875 C 16.691406 -14.96875 17.78125 -15.140625 18.6875 -15.484375 C 19.59375 -15.828125 20.285156 -16.382812 20.765625 -17.15625 C 21.253906 -17.9375 21.5 -18.960938 21.5 -20.234375 C 21.5 -21.453125 21.234375 -22.390625 20.703125 -23.046875 C 20.179688 -23.710938 19.457031 -24.175781 18.53125 -24.4375 C 17.613281 -24.707031 16.5625 -24.84375 15.375 -24.84375 L 7.1875 -24.84375 Z M 7.1875 -14.96875 "/></g></g></g><g fill="#e1f340" fill-opacity="1"><g transform="translate(311.225013, 218.269176)"><g><path d="M 7.1875 0 L 2.453125 0 L 2.453125 -29.71875 L 7.1875 -29.71875 Z M 7.1875 0 "/></g></g></g><g fill="#e1f340" fill-opacity="1"><g transform="translate(320.852148, 218.269176)"><g><path d="M 2.453125 0 L 2.453125 -29.71875 L 7.796875 -29.71875 C 9.003906 -26.820312 10.207031 -23.789062 11.40625 -20.625 C 12.613281 -17.46875 13.78125 -14.273438 14.90625 -11.046875 C 16.039062 -7.828125 17.085938 -4.675781 18.046875 -1.59375 L 18.234375 -1.59375 C 18.972656 -3.90625 19.753906 -6.257812 20.578125 -8.65625 C 21.410156 -11.0625 22.269531 -13.460938 23.15625 -15.859375 C 24.039062 -18.265625 24.929688 -20.628906 25.828125 -22.953125 C 26.734375 -25.285156 27.625 -27.539062 28.5 -29.71875 L 33.875 -29.71875 L 33.875 0 L 29.328125 0 L 29.328125 -19.34375 C 29.328125 -20.238281 29.335938 -20.976562 29.359375 -21.5625 C 29.390625 -22.144531 29.421875 -22.628906 29.453125 -23.015625 C 29.492188 -23.398438 29.523438 -23.734375 29.546875 -24.015625 L 29.390625 -24.015625 L 20.34375 0 L 15.984375 0 L 6.890625 -24.03125 L 6.765625 -24.03125 C 6.804688 -23.601562 6.847656 -23.039062 6.890625 -22.34375 C 6.941406 -21.65625 6.96875 -20.65625 6.96875 -19.34375 L 6.96875 0 Z M 2.453125 0 "/></g></g></g></svg>