<svg xmlns="http://www.w3.org/2000/svg" xmlns:xlink="http://www.w3.org/1999/xlink" width="500" zoomAndPan="magnify" viewBox="0 0 375 149.999998" height="200" preserveAspectRatio="xMidYMid meet" version="1.0"><defs><g/><clipPath id="ae2a897766"><path d="M 44.839844 6 L 176.089844 6 L 176.089844 141.53125 L 44.839844 141.53125 Z M 44.839844 6 " clip-rule="nonzero"/></clipPath><clipPath id="d3bf1285f2"><path d="M 151.332031 117.382812 L 334.355469 117.382812 L 334.355469 146.234375 L 151.332031 146.234375 Z M 151.332031 117.382812 " clip-rule="nonzero"/></clipPath><clipPath id="fd43ee6263"><path d="M 243.511719 122.972656 C 274.238281 118.285156 304.277344 113.597656 334.3125 122.613281 L 334.3125 139.742188 C 303.242188 131.085938 272.167969 135.957031 242.132812 140.644531 C 211.40625 145.332031 181.367188 150.019531 151.332031 141.003906 L 151.332031 123.875 C 182.402344 132.53125 213.476562 127.660156 243.511719 122.972656 Z M 243.511719 122.972656 " clip-rule="nonzero"/></clipPath><clipPath id="6a555cf0df"><path d="M 0.332031 0.382812 L 183.320312 0.382812 L 183.320312 29.234375 L 0.332031 29.234375 Z M 0.332031 0.382812 " clip-rule="nonzero"/></clipPath><clipPath id="9395a13750"><path d="M 92.511719 5.972656 C 123.238281 1.285156 153.277344 -3.402344 183.3125 5.613281 L 183.3125 22.742188 C 152.242188 14.085938 121.167969 18.957031 91.132812 23.644531 C 60.40625 28.332031 30.367188 33.019531 0.332031 24.003906 L 0.332031 6.875 C 31.402344 15.53125 62.476562 10.660156 92.511719 5.972656 Z M 92.511719 5.972656 " clip-rule="nonzero"/></clipPath><clipPath id="4b29a1f671"><rect x="0" width="184" y="0" height="30"/></clipPath><clipPath id="1a445ded4c"><rect x="0" width="159" y="0" height="43"/></clipPath></defs><g clip-path="url(#ae2a897766)"><path fill="#132b09" d="M 124.890625 132.507812 C 106.859375 140.378906 85.269531 132.113281 77.769531 112.753906 C 73.269531 101.167969 74.238281 85.992188 83.117188 74.609375 L 137.625 74.609375 C 152.019531 92.332031 147.3125 122.730469 124.890625 132.507812 Z M 160.011719 15.824219 L 135.386719 15.824219 L 135.386719 32.519531 C 130.378906 27.339844 116.914062 13.410156 110.492188 6.777344 C 109.253906 8.058594 59.84375 59.175781 44.917969 74.609375 L 53.085938 74.609375 C 46.484375 89.785156 46.746094 107.921875 52.824219 122.378906 C 73.246094 171.03125 146.6875 172.074219 168.074219 122.046875 C 174.480469 107.082031 174.1875 88.988281 168.136719 74.609375 L 176.070312 74.609375 L 160.011719 58 L 160.011719 15.824219 " fill-opacity="1" fill-rule="nonzero"/></g><g clip-path="url(#d3bf1285f2)"><g clip-path="url(#fd43ee6263)"><g transform="matrix(1, 0, 0, 1, 151, 117)"><g clip-path="url(#4b29a1f671)"><g clip-path="url(#6a555cf0df)"><g clip-path="url(#9395a13750)"><path fill="#132b09" d="M 0.332031 0.382812 L 183.355469 0.382812 L 183.355469 29.234375 L 0.332031 29.234375 Z M 0.332031 0.382812 " fill-opacity="1" fill-rule="nonzero"/></g></g></g></g></g></g><g transform="matrix(1, 0, 0, 1, 176, 77)"><g clip-path="url(#1a445ded4c)"><g fill="#132b09" fill-opacity="1"><g transform="translate(0.389929, 34.512459)"><g><path d="M 2.078125 0 L 2.078125 -25.234375 L 11.4375 -25.234375 C 15.675781 -25.234375 18.847656 -24.1875 20.953125 -22.09375 C 23.054688 -20 24.109375 -16.890625 24.109375 -12.765625 C 24.109375 -8.546875 23.03125 -5.363281 20.875 -3.21875 C 18.71875 -1.070312 15.46875 0 11.125 0 Z M 11.703125 -4.140625 C 14.703125 -4.140625 16.898438 -4.863281 18.296875 -6.3125 C 19.703125 -7.769531 20.40625 -9.910156 20.40625 -12.734375 C 20.40625 -15.472656 19.71875 -17.550781 18.34375 -18.96875 C 16.96875 -20.382812 14.8125 -21.09375 11.875 -21.09375 L 6.09375 -21.09375 L 6.09375 -4.140625 Z M 11.703125 -4.140625 "/></g></g></g><g fill="#132b09" fill-opacity="1"><g transform="translate(25.488678, 34.512459)"><g><path d="M 2.078125 0 L 2.078125 -25.234375 L 19.828125 -25.234375 L 19.828125 -21.1875 L 6.09375 -21.1875 L 6.09375 -14 L 17.21875 -14 L 17.21875 -12.21875 L 6.09375 -12.234375 L 6.09375 -4.015625 L 19.921875 -4.015625 L 19.921875 0 Z M 2.078125 0 "/></g></g></g><g fill="#132b09" fill-opacity="1"><g transform="translate(45.634606, 34.512459)"><g><path d="M 19.328125 -13.765625 C 19.609375 -14.992188 19.632812 -16.101562 19.40625 -17.09375 C 19.175781 -18.082031 18.742188 -18.921875 18.109375 -19.609375 C 17.484375 -20.304688 16.703125 -20.835938 15.765625 -21.203125 C 14.828125 -21.578125 13.796875 -21.765625 12.671875 -21.765625 C 10.992188 -21.765625 9.554688 -21.398438 8.359375 -20.671875 C 7.160156 -19.953125 6.242188 -18.914062 5.609375 -17.5625 C 4.984375 -16.207031 4.671875 -14.566406 4.671875 -12.640625 C 4.671875 -10.703125 4.992188 -9.050781 5.640625 -7.6875 C 6.296875 -6.320312 7.238281 -5.273438 8.46875 -4.546875 C 9.695312 -3.828125 11.179688 -3.46875 12.921875 -3.46875 C 14.234375 -3.46875 15.40625 -3.695312 16.4375 -4.15625 C 17.476562 -4.625 18.3125 -5.3125 18.9375 -6.21875 C 19.570312 -7.132812 19.953125 -8.265625 20.078125 -9.609375 L 23.46875 -8.703125 C 23.3125 -6.785156 22.78125 -5.125 21.875 -3.71875 C 20.96875 -2.320312 19.738281 -1.242188 18.1875 -0.484375 C 16.632812 0.273438 14.800781 0.65625 12.6875 0.65625 C 10.257812 0.65625 8.171875 0.132812 6.421875 -0.90625 C 4.679688 -1.945312 3.335938 -3.457031 2.390625 -5.4375 C 1.453125 -7.414062 0.984375 -9.800781 0.984375 -12.59375 C 0.984375 -15.382812 1.441406 -17.769531 2.359375 -19.75 C 3.273438 -21.738281 4.609375 -23.257812 6.359375 -24.3125 C 8.109375 -25.375 10.234375 -25.90625 12.734375 -25.90625 C 14.398438 -25.90625 15.910156 -25.632812 17.265625 -25.09375 C 18.617188 -24.5625 19.757812 -23.796875 20.6875 -22.796875 C 21.625 -21.804688 22.285156 -20.609375 22.671875 -19.203125 C 23.066406 -17.796875 23.128906 -16.21875 22.859375 -14.46875 Z M 19.328125 -13.765625 "/></g></g></g><g fill="#132b09" fill-opacity="1"><g transform="translate(69.922581, 34.512459)"><g><path d="M 13.125 0.65625 C 10.5 0.65625 8.28125 0.132812 6.46875 -0.90625 C 4.65625 -1.945312 3.285156 -3.457031 2.359375 -5.4375 C 1.441406 -7.414062 0.984375 -9.8125 0.984375 -12.625 C 0.984375 -15.4375 1.441406 -17.832031 2.359375 -19.8125 C 3.285156 -21.789062 4.648438 -23.300781 6.453125 -24.34375 C 8.265625 -25.382812 10.484375 -25.90625 13.109375 -25.90625 C 15.753906 -25.90625 17.976562 -25.382812 19.78125 -24.34375 C 21.582031 -23.300781 22.941406 -21.789062 23.859375 -19.8125 C 24.785156 -17.832031 25.25 -15.4375 25.25 -12.625 C 25.25 -9.8125 24.785156 -7.414062 23.859375 -5.4375 C 22.941406 -3.457031 21.582031 -1.945312 19.78125 -0.90625 C 17.976562 0.132812 15.757812 0.65625 13.125 0.65625 Z M 13.109375 -3.46875 C 14.878906 -3.46875 16.394531 -3.804688 17.65625 -4.484375 C 18.925781 -5.160156 19.894531 -6.175781 20.5625 -7.53125 C 21.238281 -8.882812 21.578125 -10.582031 21.578125 -12.625 C 21.578125 -14.664062 21.238281 -16.359375 20.5625 -17.703125 C 19.894531 -19.054688 18.925781 -20.070312 17.65625 -20.75 C 16.394531 -21.425781 14.878906 -21.765625 13.109375 -21.765625 C 10.453125 -21.765625 8.378906 -21.003906 6.890625 -19.484375 C 5.410156 -17.960938 4.671875 -15.675781 4.671875 -12.625 C 4.671875 -9.5625 5.410156 -7.269531 6.890625 -5.75 C 8.378906 -4.226562 10.453125 -3.46875 13.109375 -3.46875 Z M 13.109375 -3.46875 "/></g></g></g><g fill="#132b09" fill-opacity="1"><g transform="translate(96.166989, 34.512459)"><g><path d="M 22.46875 0 L 18.578125 0 C 18.472656 -0.238281 18.363281 -0.507812 18.25 -0.8125 C 18.144531 -1.113281 18.035156 -1.515625 17.921875 -2.015625 C 17.804688 -2.523438 17.671875 -3.195312 17.515625 -4.03125 L 17.203125 -5.890625 C 17.015625 -6.929688 16.707031 -7.816406 16.28125 -8.546875 C 15.863281 -9.285156 15.296875 -9.84375 14.578125 -10.21875 C 13.867188 -10.601562 12.972656 -10.796875 11.890625 -10.796875 L 6.09375 -10.796875 L 6.09375 0 L 2.078125 0 L 2.078125 -25.234375 L 13.375 -25.234375 C 15.082031 -25.234375 16.570312 -25 17.84375 -24.53125 C 19.113281 -24.0625 20.101562 -23.316406 20.8125 -22.296875 C 21.53125 -21.273438 21.890625 -19.929688 21.890625 -18.265625 C 21.890625 -16.316406 21.320312 -14.785156 20.1875 -13.671875 C 19.0625 -12.566406 17.351562 -11.925781 15.0625 -11.75 L 15.09375 -11.703125 C 16.757812 -11.535156 18.0625 -11.003906 19 -10.109375 C 19.945312 -9.222656 20.5625 -8.019531 20.84375 -6.5 L 21.203125 -4.46875 C 21.335938 -3.65625 21.507812 -2.882812 21.71875 -2.15625 C 21.925781 -1.4375 22.175781 -0.71875 22.46875 0 Z M 6.09375 -12.703125 L 13.09375 -12.703125 C 14.175781 -12.703125 15.101562 -12.847656 15.875 -13.140625 C 16.644531 -13.441406 17.234375 -13.921875 17.640625 -14.578125 C 18.054688 -15.234375 18.265625 -16.101562 18.265625 -17.1875 C 18.265625 -18.21875 18.039062 -19.015625 17.59375 -19.578125 C 17.144531 -20.140625 16.53125 -20.53125 15.75 -20.75 C 14.96875 -20.976562 14.070312 -21.09375 13.0625 -21.09375 L 6.09375 -21.09375 Z M 6.09375 -12.703125 "/></g></g></g><g fill="#132b09" fill-opacity="1"><g transform="translate(119.274054, 34.512459)"><g><path d="M 6.09375 0 L 2.078125 0 L 2.078125 -25.234375 L 6.09375 -25.234375 Z M 6.09375 0 "/></g></g></g><g fill="#132b09" fill-opacity="1"><g transform="translate(127.452298, 34.512459)"><g><path d="M 2.078125 0 L 2.078125 -25.234375 L 6.625 -25.234375 C 7.644531 -22.773438 8.664062 -20.203125 9.6875 -17.515625 C 10.707031 -14.835938 11.695312 -12.128906 12.65625 -9.390625 C 13.613281 -6.648438 14.503906 -3.972656 15.328125 -1.359375 L 15.484375 -1.359375 C 16.109375 -3.316406 16.773438 -5.316406 17.484375 -7.359375 C 18.191406 -9.398438 18.921875 -11.4375 19.671875 -13.46875 C 20.421875 -15.507812 21.175781 -17.519531 21.9375 -19.5 C 22.707031 -21.476562 23.460938 -23.390625 24.203125 -25.234375 L 28.765625 -25.234375 L 28.765625 0 L 24.90625 0 L 24.90625 -16.421875 C 24.90625 -17.191406 24.914062 -17.820312 24.9375 -18.3125 C 24.957031 -18.800781 24.984375 -19.207031 25.015625 -19.53125 C 25.046875 -19.863281 25.070312 -20.148438 25.09375 -20.390625 L 24.953125 -20.390625 L 17.265625 0 L 13.578125 0 L 5.84375 -20.40625 L 5.75 -20.40625 C 5.78125 -20.039062 5.816406 -19.5625 5.859375 -18.96875 C 5.898438 -18.382812 5.921875 -17.535156 5.921875 -16.421875 L 5.921875 0 Z M 2.078125 0 "/></g></g></g></g></g></svg>